<?xml version="1.0" standalone="no"?>
<!DOCTYPE svg PUBLIC "-//W3C//DTD SVG 1.1//EN" "http://www.w3.org/Graphics/SVG/1.1/DTD/svg11.dtd" >
<svg xmlns="http://www.w3.org/2000/svg">
  <metadata>Created by iconfont</metadata>
  <defs>
  <font id="xcx" horiz-adv-x="1024">
    <font-face
      font-family="xcx"
      font-weight="400"
      font-stretch="normal"
      units-per-em="1024"
      ascent="896"
      descent="-128"
    />
      <missing-glyph />
      
      <glyph glyph-name="delete" unicode="&#59046;" d="M955.73333333 691.2l-170.66666666 0L785.06666667 759.46666667c0 56.45653333-45.568 102.4-101.61493334 102.4L341.33333333 861.86666667C284.8768 861.86666667 238.93333333 815.9232 238.93333333 759.46666667l0-68.26666667L68.26666667 691.2C49.39093333 691.2 34.13333333 675.9424 34.13333333 657.06666667s15.2576-34.13333333 34.13333334-34.13333334l887.46666666 0c18.87573333 0 34.13333333 15.2576 34.13333334 34.13333334S974.60906667 691.2 955.73333333 691.2zM819.2 554.66666667L204.8 554.66666667c-0.03413333 0 0.1024 0 0.06826667 0-9.04533333 0-17.74933333-3.34506667-24.1664-9.69386667C174.2848 538.5557333300001 170.66666667 530.1248 170.66666667 521.04533333L170.66666667 8.533333330000005c0-56.45653333 46.01173333-102.4 102.46826666-102.4l477.93493334 0C807.5264-93.86666666999997 853.33333333-47.92319999999995 853.33333333 8.533333330000005L853.33333333 520.53333333C853.33333333 539.3408 838.0416 554.5984000000001 819.2 554.66666667zM443.73333333 76.79999999999995c0-18.87573333-15.2576-34.13333333-34.13333333-34.13333333s-34.13333333 15.2576-34.13333333 34.13333333L375.46666667 452.26666667c0 18.87573333 15.2576 34.13333333 34.13333333 34.13333333s34.13333333-15.2576 34.13333333-34.13333333L443.73333333 76.79999999999995zM648.53333333 76.79999999999995c0-18.87573333-15.2576-34.13333333-34.13333333-34.13333333s-34.13333333 15.2576-34.13333333 34.13333333L580.26666667 452.26666667c0 18.87573333 15.2576 34.13333333 34.13333333 34.13333333s34.13333333-15.2576 34.13333333-34.13333333L648.53333333 76.79999999999995z"  horiz-adv-x="1024" />
      
      <glyph glyph-name="list1" unicode="&#58899;" d="M62.360791 757.866966l150.266375 0 0-150.192697-150.266375 0 0 150.192697ZM362.820887 757.866966l596.895529 0 0-150.192697-596.895529 0 0 150.192697ZM62.360791 457.91136l150.266375 0 0-150.193721-150.266375 0 0 150.193721ZM362.820887 457.91136l596.895529 0 0-150.193721-596.895529 0 0 150.193721ZM62.360791 160.2541l150.266375 0 0-150.192697-150.266375 0 0 150.192697ZM362.820887 160.2541l596.895529 0 0-150.192697-596.895529 0 0 150.192697Z"  horiz-adv-x="1024" />
      
      <glyph glyph-name="refresh" unicode="&#58934;" d="M918 193.20000000000005L918 193.20000000000005c45.6 98.8 52 206 26 303.6-30 112.4-104 212.8-211.6 273.6L780 872.8l-270.8-70.8 121.2-252.4 50 107.6c72.8-44.4 122.8-114.4 144-192.8 18.8-70.8 14.4-147.6-18.8-219.6-42-91.2-120.8-153.6-210.8-177.6-13.2-3.6-26.4-6-39.6-8l56-115.6c5.2 1.2 10.4 2.4 16 4C750.8-19.200000000000045 860 67.20000000000005 918 193.20000000000005L918 193.20000000000005M343.2 102.79999999999995c-74 44.4-124.8 114.8-146 194-18.8 70.8-14.4 147.6 18.8 219.6 42 91.2 120.8 153.6 210.8 177.6 14.8 4 30 6.8 45.6 8.8l-55.6 116c-7.2-1.6-14.8-3.2-22-5.2-124-33.2-233.6-119.6-291.2-245.6-45.6-98.8-52-206-26-303.2l0-0.4c30.4-113.2 105.2-214 213.6-274.8l-45.2-98 270.4 72-122 252L343.2 102.79999999999995 343.2 102.79999999999995M343.2 102.79999999999995L343.2 102.79999999999995z"  horiz-adv-x="1024" />
      
      <glyph glyph-name="f2a" unicode="&#58994;" d="M512 829.71428531q-90.53571469 0-173.03571469-35.35714219T196.73214312 699.26785688 101.64285688 557.0357146900001 66.28571469 384t35.35714219-173.03571469 95.08928625-142.23214218T338.96428531-26.357143120000046t173.03571469-35.35714219 173.03571469 35.35714218 142.23214218 95.08928625T922.35714312 210.96428531000004t35.35714219 173.03571469-35.35714218 173.03571469-95.08928625 142.23214218T685.03571469 794.35714312 512 829.71428531z m0 34.28571469q97.5 0 186.42857156-38.03571469t153.21428532-102.32142844 102.32142843-153.21428531 38.03571469-186.42857156-38.03571469-186.42857156-102.32142843-153.21428532-153.21428532-102.32142843-186.42857156-38.03571469-186.42857156 38.03571469-153.21428532 102.32142843-102.32142843 153.21428532T32 384t38.03571469 186.42857156 102.32142844 153.21428532T325.57142844 825.96428531 512 864zM297.71428531 418.28571469q8.57142844 0 8.57142938-8.57142938v-257.14285687q0-8.57142844-8.57142938-8.57142844h-17.14285687q-8.57142844 0-8.57142844 8.57142844V409.71428531q0 8.57142844 8.57142844 8.57142938h17.14285687z m214.28571469-34.28571469q28.39285687 0 48.48214313-20.08928531t20.08928531-48.48214313q0-18.75-9.375-34.28571469t-24.91071375-24.64285687v-61.07142844q0-7.5-4.82142938-12.32142844t-12.32142843-4.82142843h-34.28571375q-7.5 0-12.32142844 4.82142843t-4.82142938 12.32142844v61.07142844q-15.53571469 9.10714313-24.91071375 24.64285687t-9.375 34.28571469q0 28.39285687 20.08928532 48.48214313T512 384z m0 411.42857156q111.96428531 0 206.51785688-55.17857156T868.25 590.51785688 923.42857156 384t-55.17857156-206.51785688-149.73214313-149.73214312T512-27.428571560000023t-206.51785688 55.17857156T155.75 177.48214312000005 100.57142844 384t55.17857156 206.51785688T305.48214312 740.25 512 795.42857156zM323.42857156 538.2857146900001v-51.42857157q0-7.5 4.82142844-12.32142843t12.32142844-4.82142938h34.28571469q7.5 0 12.32142843 4.82142938t4.82142844 12.32142843v51.42857157q0 49.82142844 35.08928531 84.91071375T512 658.28571469t84.91071469-35.08928625T632 538.2857146900001v-51.42857157q0-7.5 4.82142844-12.32142843t12.32142843-4.82142938h34.28571469q7.5 0 12.32142844 4.82142938t4.82142844 12.32142843v51.42857157q0 78.21428531-55.17857156 133.39285687T512 726.85714312 378.60714312 671.67857156 323.42857156 538.2857146900001z m462.85714313-394.28571469V418.28571469q0 13.92857156-10.17857157 24.10714219t-24.10714312 10.17857156H272q-13.92857156 0-24.10714313-10.17857156t-10.17857156-24.10714219v-274.28571469q0-13.92857156 10.17857157-24.10714313t24.10714312-10.17857156h480q13.92857156 0 24.10714313 10.17857157t10.17857156 24.10714312z"  horiz-adv-x="1024" />
      
      <glyph glyph-name="chart" unicode="&#59311;" d="M968.32474075 44.183703700000024H133.34755555V801.48859259c0 5.33997037-4.36906667 9.70903703-9.70903703 9.70903704h-67.96325927c-5.33997037 0-9.70903703-4.36906667-9.70903703-9.70903704v-834.97718518c0-5.33997037 4.36906667-9.70903703 9.70903703-9.70903704h912.6494815c5.33997037 0 9.70903703 4.36906667 9.70903703 9.70903704v67.96325926c0 5.33997037-4.36906667 9.70903703-9.70903703 9.70903703zM220.72888889 121.856h650.50548148c5.33997037 0 9.70903703 4.36906667 9.70903704 9.70903703V660.70755555c0 8.73813333-10.55857778 12.98583703-16.62672593 6.9176889L609.09037037 412.39893333l-152.18915555 150.49007408c-3.76225185 3.76225185-9.95176297 3.76225185-13.71401482 0l-229.376-230.10417778c-1.82044445-1.82044445-2.79134815-4.2477037-2.79134815-6.79632593V131.56503702999998c0-5.33997037 4.36906667-9.70903703 9.70903704-9.70903703z"  horiz-adv-x="1024" />
      
      <glyph glyph-name="plus" unicode="&#59433;" d="M576 832H448v-384H64v-128h384v-384h128V320h384V448H576z"  horiz-adv-x="1024" />
      
      <glyph glyph-name="time" unicode="&#58940;" d="M512-96a480 480 0 1 0 480 480 480 480 0 0 0-480-480zM512 744a360 360 0 1 1 360-360 360 360 0 0 1-360 360z m180-420H512a60 60 0 0 0-60 60V624a60 60 0 0 0 120 0v-180h120a60 60 0 0 0 0-120z"  horiz-adv-x="1024" />
      
      <glyph glyph-name="calculator" unicode="&#59031;" d="M842 864H182C134 864 92 822 92 774v-780c0-48 42-90 90-90h660c48 0 90 42 90 90V774c0 48-42 90-90 90zM332 48c0-12-12-24-24-24H236c-12 0-24 12-24 24v72c0 12 12 24 24 24h72c12 0 24-12 24-24v-72z m0 240c0-12-12-24-24-24H236c-12 0-24 12-24 24v72c0 12 12 24 24 24h72c12 0 24-12 24-24v-72z m240-240c0-12-12-24-24-24h-72c-12 0-24 12-24 24v72c0 12 12 24 24 24h72c12 0 24-12 24-24v-72z m0 240c0-12-12-24-24-24h-72c-12 0-24 12-24 24v72c0 12 12 24 24 24h72c12 0 24-12 24-24v-72z m240-240c0-12-12-24-24-24h-72c-12 0-24 12-24 24V360c0 12 12 24 24 24h72c12 0 24-12 24-24v-312z m0 480c0-12-12-24-24-24H236c-12 0-24 12-24 24V720C212 732 224 744 236 744h552c12 0 24-12 24-24v-192z"  horiz-adv-x="1024" />
      
      <glyph glyph-name="pc" unicode="&#58904;" d="M682.32258031-3.0967743700000483h130.06451625c23.9690325 0 43.35483844-19.38580688 43.35483938-43.35483844 0-23.9690325-19.38580688-43.35483844-43.35483938-43.35483844H335.48387094c-23.9690325 0-43.35483844 19.38580688-43.35483844 43.35483844 0 23.9690325 19.38580688 43.35483844 43.35483844 43.35483843h108.38709656v108.38709657H118.70967781A86.80258031 86.80258031 0 0 0 32 192V777.29032219C32 825.10451625 70.89548375 864 118.70967781 864h910.45161281C1076.97548375 864 1115.8709675 825.10451625 1115.8709675 777.29032219v-585.29032219c0-47.81419313-38.89548375-86.70967781-86.70967687-86.70967781H682.32258031V-3.0967743700000483z m-43.35483844-1e-8v108.38709657h-151.741935V-3.0967743700000483h151.741935zM118.70967781 777.29032219v-585.29032219h910.45161281V777.29032219H118.70967781zM350.78193594 413.51225813l153.22838625 153.22838718a43.41677437 43.41677437 0 0 0 61.378065-61.378065l-153.22838719-153.07354781a43.41677437 43.41677437 0 0 0-61.37806406 0 43.26193594 43.26193594 0 0 0 0 61.22322563z m260.12903156 48.61935468l61.378065 61.4090325a43.41677437 43.41677437 0 0 0 61.37806406-61.378065l-61.37806406-61.37806406a43.41677437 43.41677437 0 0 0-61.378065 61.37806406z"  horiz-adv-x="1156" />
      
      <glyph glyph-name="female" unicode="&#59196;" d="M580.26666667 324.26666666999995c117.76 30.29333333 204.8 137.17333333 204.8 264.53333333 0 150.82666667-122.24 273.06666667-273.06666667 273.06666667S238.93333333 739.62666667 238.93333333 588.8c0-127.14666667 87.04-234.02666667 204.8-264.53333333l0-145.06666667-136.53333333 0 0-136.53333333 136.53333333 0 0-136.53333334 136.53333334 0 0 136.53333334 136.53333333 0 0 136.53333333-136.53333333 0L580.26666667 324.26666666999995zM512 418.13333333c-94.08 0-170.66666667 76.58666667-170.66666667 170.66666667s76.58666667 170.66666667 170.66666667 170.66666667 170.66666667-76.58666667 170.66666667-170.66666667S606.08 418.13333333 512 418.13333333z"  horiz-adv-x="1024" />
      
      <glyph glyph-name="love" unicode="&#59036;" d="M511.44579527-42.719957900000054a38.04916281 38.04916281 0 0 0-14.99961344 3.07956053c-18.65433543 7.99870749-456.84027165 200.03287609-456.8402705 562.41388886 0 158.77375203 129.17504341 287.94646642 287.94646641 287.94646641 67.60479175 0 132.98578091-24.01009209 184.44529323-66.87710777 51.45951232 42.86585059 116.84050147 66.87710777 184.44529436 66.87710777 158.77724501 0 287.95228843-129.17271438 287.95228729-287.94646641 0-362.40662755-439.28270165-554.43148231-457.98011563-562.42669682a38.07826944 38.07826944 0 0 0-14.96934172-3.06675257z"  horiz-adv-x="1024" />
      
      <glyph glyph-name="male" unicode="&#59083;" d="M992 521.13391312V864H649.13391312l135.02608688-135.00521719-147.23478281-147.21391312a375.65217375 375.65217375 0 0 1-227.79130406 76.50782625C200.8556525 658.28869594 32 489.43304344 32 281.11304343999996 32 72.85565250000002 200.8556525-96 409.13391312-96c208.27826063 0 377.15478281 168.8556525 377.15478282 377.13391313a375.65217375 375.65217375 0 0 1-76.50782625 227.79130406l147.21391312 147.21391312L992 521.13391312zM603.07478281 87.23478280999996a272.30608688 272.30608688 0 0 0-193.94086968-80.34782625 272.30608688 272.30608688 0 0 0-193.92000001 80.34782625 272.30608688 272.30608688 0 0 0-80.34782625 193.92c0 73.29391312 28.48695656 142.08 80.34782625 193.94086969a272.30608688 272.30608688 0 0 0 193.92 80.34782531c73.29391312 0 142.08-28.48695656 193.94086969-80.34782531a272.30608688 272.30608688 0 0 0 80.34782625-193.94086969c0-73.27304344-28.48695656-142.05913031-80.34782625-193.92z"  horiz-adv-x="1024" />
      
      <glyph glyph-name="search" unicode="&#59438;" d="M974.48 6.419999999999959l-186.12 186.06A420 420 0 1 1 32 444a420 420 0 0 1 671.52-336.36l186-186a60 60 0 1 1 84.96 84.78zM452 144.05999999999995A300 300 0 1 0 452 744a300 300 0 0 0 0-600z"  horiz-adv-x="1024" />
      
      <glyph glyph-name="passwd" unicode="&#58880;" d="M992 533.9981250000001C992 351.744375 844.25375 204 662 204c-21.0375 0-41.60625 1.99125-61.550625 5.754375l-45.0225-50.65125A44.998125 44.998125 0 0 0 521.793125 144H452v-75c0-24.853125-20.146875-45-45-45h-75v-75c0-24.853125-20.146875-45-45-45H77c-24.853125 0-45 20.146875-45 45v146.360625c0 11.934375 4.741875 23.38125 13.179375 31.820625l303.37875 303.37875C337.8275 463.09875 332 497.866875 332 534 332 716.25375 479.744375 863.998125 661.998125 864 844.79 864.001875 992 716.791875 992 533.9981250000001zM662 624c0-49.70625 40.29375-90 90-90s90 40.29375 90 90-40.29375 90-90 90-90-40.29375-90-90z"  horiz-adv-x="1024" />
      
      <glyph glyph-name="logs" unicode="&#59948;" d="M399.98016594 315.65939062999996c0 0 100.79985094 86.63987156 282.29958187 68.33989874 6.05999063-0.59999906 11.93998219-1.25999813 17.57997375-1.91999718 26.03996156 34.79994844 52.43992219 71.99989312 78.23988375 109.79983781l-250.37962968-1.19999813c0 0 105.83984344 94.97985938 272.21959687 76.61988657 9.53998594-1.07999813 18.17997281-2.21999625 26.21996156-3.41999532 23.87996438 36.71994562 46.55993062 72.83989219 67.01990063 106.61984251l-194.03971313 5.1599925c0 0 132.41980406 80.27988094 239.27964563 71.81989406 39.17994188 69.59989687 60.95991 116.8198275 51.29992406 116.5198275-719.158935-23.33996531-957.7185825-959.99857875-957.7185825-959.99857875l68.87989781 0c51.23992406 101.45985 166.31975344 288.35957344 166.31975344 288.35957344s114.23983125-44.99993344 243.59963906-3.35999532c32.99995125 10.61998406 82.73987719 59.93991094 137.81979563 127.43981156l-248.63963156-0.77999906z"  horiz-adv-x="1024" />
      
      <glyph glyph-name="short" unicode="&#59643;" d="M616.6755552 211.05777812999997c-63.7155552 0-127.43111147 27.30666667-172.94222187 72.81777814-63.7155552 63.7155552-86.47111147 145.6355552-68.26666666 227.5555552C375.46666667 538.7377781299999 398.22222187 556.94222187 420.97777813 547.8399999999999c22.7555552-4.55111147 40.96-27.30666667 36.40888854-54.61333333-9.10222187-50.06222187 4.55111147-104.6755552 40.96-141.0844448 40.96-40.96 95.57333333-54.61333333 145.6355552-45.51111147 27.30666667 4.55111147 54.61333333 18.2044448 72.81777813 36.40888853 4.55111147 4.55111147 4.55111147 4.55111147 9.10222187 4.55111147l131.98222186 131.98222187c59.1644448 59.1644448 59.1644448 159.28888853 0 223.0044448-63.7155552 63.7155552-163.84 63.7155552-227.5555552 4.55111146l-68.26666666-68.26666666c0 0-4.55111147-4.55111147-4.55111147-4.55111147-13.65333333-18.2044448-45.51111147-22.7555552-63.7155552-9.10222187-18.2044448 13.65333333-22.7555552 45.51111147-9.10222187 63.7155552C493.7955552 698.0266666699999 498.34666667 702.5777781300001 502.89777813 702.5777781300001l68.26666667 68.26666667c95.57333333 95.57333333 254.86222187 95.57333333 350.4355552 0 100.1244448-100.1244448 100.1244448-254.86222187 4.55111147-354.98666667l-131.98222187-131.98222186c-4.55111147-4.55111147-9.10222187-9.10222187-13.65333333-13.65333334-31.85777813-27.30666667-68.26666667-45.51111147-113.77777814-54.61333333C648.53333333 215.60888852999994 630.32888853 211.05777812999997 616.6755552 211.05777812999997zM325.4044448-75.66222187000005c-63.7155552 0-127.43111147 22.7555552-177.49333333 72.81777814-100.1244448 100.1244448-100.1244448 254.86222187-4.55111147 354.98666666l131.98222187 131.98222187C284.4444448 484.1244448 284.4444448 488.6755552 288.9955552 493.22666667c31.85777813 27.30666667 68.26666667 45.51111147 113.77777813 54.61333333 81.92 18.2044448 163.84-9.10222187 227.5555552-68.26666667 63.7155552-63.7155552 86.47111147-145.6355552 68.26666667-227.5555552-4.55111147-22.7555552-27.30666667-40.96-54.61333333-36.40888853-22.7555552 4.55111147-40.96 27.30666667-36.40888854 54.61333333 9.10222187 50.06222187-4.55111147 104.6755552-40.96 141.0844448-40.96 40.96-95.57333333 54.61333333-145.6355552 45.51111147-27.30666667-4.55111147-54.61333333-18.2044448-72.81777813-36.40888853-4.55111147-4.55111147-4.55111147-4.55111147-9.10222187-4.55111147l-131.98222186-131.98222187c-59.1644448-59.1644448-59.1644448-159.28888853 0-223.0044448 63.7155552-63.7155552 163.84-63.7155552 227.5555552-4.55111146l68.26666666 68.26666666c0 0 4.55111147 4.55111147 4.55111147 4.55111147 13.65333333 18.2044448 45.51111147 22.7555552 63.7155552 9.10222187 18.2044448-13.65333333 22.7555552-45.51111147 9.10222187-63.7155552-4.55111147-4.55111147-9.10222187-9.10222187-13.65333334-13.65333334l-68.26666666-68.26666666C452.8355552-52.90666667000005 389.12-75.66222187000005 325.4044448-75.66222187000005z"  horiz-adv-x="1024" />
      
      <glyph glyph-name="text" unicode="&#58953;" d="M652.704091 587.239867L402.56303 587.239867c-25.89374 0-46.901193-21.007453-46.901193-46.901193 0-25.894763 21.007453-46.902216 46.901193-46.902216l250.14106 0c25.89374 0 46.901193 21.007453 46.901193 46.902216C699.605284 566.2324140000001 678.597831 587.239867 652.704091 587.239867zM762.140549 837.381951L261.858428 837.381951c-86.35374 0-156.337651-69.986981-156.337651-156.338674l0-594.08553c0-86.352717 69.984934-156.337651 156.337651-156.337651l500.283144 0c86.35374 0 156.337651 69.985958 156.337651 156.337651L918.479223 681.042253C918.479223 767.3949700000001 848.494289 837.381951 762.140549 837.381951zM824.675814 119.23384699999997c0-69.635987-53.832046-94.810343-120.247688-94.810343L319.569828 24.423504999999977c-66.413596 0-120.247688 25.175379-120.247688 94.810343L199.32214 648.7671760000001c0 69.63394 53.833069 94.810343 120.247688 94.810343l384.858298 0c66.414619 0 120.247688-25.177426 120.247688-94.810343L824.675814 119.23384699999997zM558.900681 399.634072L402.56303 399.634072c-25.89374 0-46.901193-20.99415-46.901193-46.901193 0-25.89374 21.007453-46.902216 46.901193-46.902216l156.337651 0c25.89374 0 46.901193 21.008476 46.901193 46.902216C605.801874 378.640945 584.794421 399.634072 558.900681 399.634072z"  horiz-adv-x="1024" />
      
      <glyph glyph-name="mnp" unicode="&#58942;" d="M512 864a480 480 0 1 1 480-480A480 480 0 0 1 512 864z m240.6721875-431.424375a142.464375 142.464375 0 0 0-81.8878125-61.63125 78.0478125 78.0478125 0 0 0-22.944375-3.84 27.264375 27.264375 0 0 0 0 54.5278125 14.6878125 14.6878125 0 0 1 6.0478125 1.1521875 85.7278125 85.7278125 0 0 1 52.415625 38.4 70.56 70.56 0 0 1 10.36875 37.15125c0 43.104375-39.84 78.624375-88.415625 78.624375a98.6878125 98.6878125 0 0 1-48-12.575625 76.8 76.8 0 0 1-40.9921875-66.04875v-228.96a129.7921875 129.7921875 0 0 0-68.16-112.895625 149.664375 149.664375 0 0 0-74.784375-19.2c-79.104375 0-144 59.52-144 133.1521875a127.68 127.68 0 0 0 18.5278125 65.4721875 142.464375 142.464375 0 0 0 81.8878125 61.63125 80.544375 80.544375 0 0 0 22.944375 3.84 27.264375 27.264375 0 1 0 0-54.5278125 14.6878125 14.6878125 0 0 1-6.0478125-1.1521875 89.9521875 89.9521875 0 0 1-52.415625-38.4 70.56 70.56 0 0 1-10.36875-37.15125c0-43.104375 39.84-78.624375 88.9921875-78.624375a98.6878125 98.6878125 0 0 1 48 12.575625 76.8 76.8 0 0 1 40.895625 66.04875V498.046875a130.08 130.08 0 0 0 68.2565625 112.9921875 141.7921875 141.7921875 0 0 0 74.2078125 20.16c79.104375 0 144-59.52 144-133.1521875a127.68 127.68 0 0 0-18.5278125-65.4721875z"  horiz-adv-x="1024" />
      
      <glyph glyph-name="scan" unicode="&#58996;" d="M725.333333 768h149.184C886.421333 768 896 758.421333 896 746.517333V597.333333a42.666667 42.666667 0 1 1 85.333333 0V746.517333A106.752 106.752 0 0 1 874.517333 853.333333H725.333333a42.666667 42.666667 0 1 1 0-85.333333z m170.666667-597.333333v-149.184c0-11.904-9.578667-21.482667-21.482667-21.482667H725.333333a42.666667 42.666667 0 1 1 0-85.333333h149.184A106.752 106.752 0 0 1 981.333333 21.482666999999992V170.66666699999996a42.666667 42.666667 0 1 1-85.333333 0z m-597.333333-170.666667H149.482667A21.418667 21.418667 0 0 0 128 21.482666999999992V170.66666699999996a42.666667 42.666667 0 1 1-85.333333 0v-149.184A106.752 106.752 0 0 1 149.482667-85.33333300000004H298.666667a42.666667 42.666667 0 1 1 0 85.333333zM128 597.333333a42.666667 42.666667 0 1 0-85.333333 0V746.517333A106.752 106.752 0 0 0 149.482667 853.333333H298.666667a42.666667 42.666667 0 1 0 0-85.333333H149.482667C137.578667 768 128 758.421333 128 746.517333V597.333333zM85.333333 341.33333300000004a42.666667 42.666667 0 1 0 0 85.333334h853.333334a42.666667 42.666667 0 1 0 0-85.333334H85.333333z"  horiz-adv-x="1024" />
      
      <glyph glyph-name="feedback" unicode="&#59627;" d="M242.81694777 65.51703666000003L26.54814777-104.39111112V793.69481443a48.54518557 48.54518557 0 0 0 48.54518556 48.54518557h873.81333334a48.54518557 48.54518557 0 0 0 48.54518556-48.54518557v-679.63259221a48.54518557 48.54518557 0 0 0-48.54518556-48.54518556H242.81694777zM463.45481443 356.78814776v-97.09036998h97.09037114v97.09036998h-97.09037114z m0 291.27111112v-242.72592555h97.09037114V648.05925888h-97.09037114z"  horiz-adv-x="1024" />
      
      <glyph glyph-name="unlock" unicode="&#59194;" d="M553.42522469 135.44865185000003a41.42522469 41.42522469 0 0 0-82.85044938 0v165.70089876a41.42522469 41.42522469 0 0 0 82.85044938 0v-165.70089876z m331.73319933 372.82702223H359.63802358V636.94242196A161.39267539 161.39267539 0 0 0 520.69929718 798.2522469099999a161.43410062 161.43410062 0 0 0 161.14412406-161.30982495 41.42522469 41.42522469 0 1 1 82.85044937 0A244.32597523 244.32597523 0 0 1 520.69929718 881.1026963c-134.50770457 0-243.91172299-109.52829408-243.91172297-244.16027434V508.27567408h-137.94599823A82.85044939 82.85044939 0 0 1 56.32252839 425.30094901v-414.04512078A82.85044939 82.85044939 0 0 1 138.84157598-71.67747161h746.31684804A82.85044939 82.85044939 0 0 1 967.67747161 11.25582823000002v414.04512078A82.85044939 82.85044939 0 0 1 885.15842402 508.27567408z"  horiz-adv-x="1024" />
      
      <glyph glyph-name="lock" unicode="&#59038;" d="M838.9831069-102.05596972000001L185.0168931-102.05596972000001c-44.18690634 0-79.53643141 35.34952507-79.53643141 79.53643141L105.48046169 384c0 44.18690634 44.18690634 79.53643141 79.53643141 79.53643141l645.12883253 0c53.02428761 0 79.53643141-35.34952507 79.5364314-79.53643141l0-406.51953831C918.51953831-66.70644463999997 883.17001324-102.05596972000001 838.9831069-102.05596972000001zM308.74023085 507.72333775L308.74023085 622.60929422c0 97.21119393 70.69905013 167.91024409 167.91024408 167.91024409l70.69905014 0c88.37381268 0 167.91024409-70.69905013 167.91024408-167.91024409l0-114.88595647 79.53643142 0L794.79620057 622.60929422c0 141.39810029-114.88595647 247.44667549-247.4466755 247.4466755L476.65047493 870.05596972c-141.39810029 0-247.44667549-114.88595647-247.4466755-247.4466755l0-114.88595647L308.74023085 507.72333775z"  horiz-adv-x="1024" />
      
      <glyph glyph-name="weixin" unicode="&#58986;" d="M707.28114687 540.64829062c3.17530313 0 5.82138938 0 8.99669251 0C686.11245875 673.48180781 545.86990062 774.03307594 377.04961438 774.03307594 186.53142219 774.03307594 32 645.9625134400001 32 488.25578813c0-93.14222719 53.45093719-175.70011031 136.53803719-227.56339594l-34.39911844-104.78500594 123.30760781 64.56449813c37.04520375-11.64277875 77.79492844-17.46416719 119.60308688-17.46416719 8.9966925 0 17.993385 0.52921688 26.46085968 1.05843468-7.40904094 22.75633969-11.64277875 47.10033094-11.64277875 71.44432219C391.86769531 421.57442156 533.16868813 540.64829062 707.28114687 540.64829062zM495.06504969 633.79051781c24.87320812 0 44.98346156-20.63947125 44.98346156-45.51267937 0-25.40242594-20.11025344-45.51267937-44.98346156-45.51267938S450.08158719 562.87541344 450.08158719 588.2778393799999C450.08158719 613.1510475 470.19184156 633.79051781 495.06504969 633.79051781zM256.91730969 542.7651599999999c-24.87320812 0-44.98346156 20.63947125-44.98346157 45.51267937 0 25.40242594 20.11025344 45.51267937 44.98346157 45.51267938s44.98346156-20.63947125 44.98346156-45.51267938C301.90077219 562.87541344 281.79051781 542.7651599999999 256.91730969 542.7651599999999zM992 274.98125718999995c0 132.83351719-127.54134469 240.79382625-285.24807094 240.79382625-157.17750844 0-285.24807094-107.96030906-285.24807094-240.79382625s127.54134469-240.79382625 285.24807094-240.79382625c33.34068375 0 65.62293281 4.76295469 95.78831344 13.75964719l95.78831344-53.98015407-25.93164282 84.67475157C944.89966906 122.56670343999997 992 194.01102562999995 992 274.98125718999995zM614.13891969 315.20176405999996c-20.63947125 0-37.57442156 15.34729875-37.57442156 33.86990063 0 18.52260187 16.93495031 33.86990062 37.57442156 33.86990062s37.57442156-15.34729875 37.57442156-33.86990062C651.71334031 330.01984594 634.77839 315.20176405999996 614.13891969 315.20176405999996zM800.95259094 315.20176405999996c-20.63947125 0-37.57442156 15.34729875-37.57442157 33.86990063 0 18.52260187 16.93495031 33.86990062 37.57442157 33.86990062s37.57442156-15.34729875 37.57442156-33.86990062C838.5270125 330.01984594 821.59206219 315.20176405999996 800.95259094 315.20176405999996z"  horiz-adv-x="1024" />
      
      <glyph glyph-name="mail" unicode="&#59146;" d="M512 301.14955061a41.42522469 41.42522469 0 0 0-22.24534565 6.46233506L14.8973037 609.8088997899999v-557.50067389A82.85044939 82.85044939 0 0 1 97.83060354-30.252246910000054h828.33879292A82.85044939 82.85044939 0 0 1 1009.1026963 52.308225900000025V609.39464755l-474.85735065-301.78276188A41.54950036 41.54950036 0 0 0 512 301.14955061M926.16939646 798.2522469099999H97.83060354A82.85044939 82.85044939 0 0 1 14.8973037 715.65034889v-6.33805939l497.1026963-317.64862293 497.1026963 315.90876349v8.07791883A82.85044939 82.85044939 0 0 1 926.16939646 798.2522469099999"  horiz-adv-x="1024" />
      
      <glyph glyph-name="invite" unicode="&#59032;" d="M989.86666667 235.65866667v-127.43466667c-0.224-67.424-54.82666667-122.03733333-122.25066667-122.25066667H474.57066667c-67.424 0.224-122.03733333 54.82666667-122.25066667 122.25066667V235.65866667c1.55733333 49.49333333 31.46666667 93.67466667 76.85333333 113.49333333a645.49866667 645.49866667 0 0 0 483.84 0c45.376-19.808 75.296-63.98933333 76.85333334-113.49333333zM671.28533333 463.44533333c87.968 0 159.28533333 71.31733333 159.28533334 159.28533334S759.25333333 782.016 671.28533333 782.016 512 710.7093333299999 512 622.73066667s71.31733333-159.28533333 159.28533333-159.28533334zM392.53333333 423.62666667c21.99466667 0 39.81866667 17.824 39.81866667 39.81866666 0 21.99466667-17.83466667 39.81866667-39.81866667 39.81866667H273.06666667v119.46666667c0 21.99466667-17.824 39.81866667-39.81866667 39.81866666s-39.81866667-17.824-39.81866667-39.81866666v-119.46666667h-119.46666666C51.968 503.264 34.13333333 485.44 34.13333333 463.44533333c0-21.99466667 17.83466667-39.81866667 39.81866667-39.81866666h119.46666667v-119.46666667c0-21.99466667 17.83466667-39.81866667 39.81866666-39.81866667S273.06666667 282.16533332999995 273.06666667 304.15999999999997v119.46666667h119.46666666z"  horiz-adv-x="1024" />
      
      <glyph glyph-name="arrow-right" unicode="&#59015;" d="M778.67488355 422.83614815l-466.03377778 414.25224651c-20.71261275 18.12353539-54.37060741 18.12353539-72.4941428-5.17815228-18.12353539-20.71261275-18.12353539-54.37060741 5.17815348-72.49414402L667.34459259 384 245.32511645 8.583901640000022c-20.71261275-18.12353539-23.30168889-51.78153127-5.17815348-72.49414402 10.35630577-10.35630577 23.30168889-18.12353539 38.83614814-18.1235354 12.94538311 0 23.30168889 5.17815349 33.65799466 12.94538312l466.03377778 414.25224651c10.35630577 10.35630577 18.12353539 23.30168889 18.12353661 38.83614815s-5.17815349 28.47984238-18.12353661 38.83614815z"  horiz-adv-x="1024" />
      
      <glyph glyph-name="rss" unicode="&#58882;" d="M887.46666667 861.86666667H136.53333333C79.97866667 861.86666667 34.13333333 816.0213333300001 34.13333333 759.46666667v-750.93333334c0-56.55466667 45.84533333-102.4 102.4-102.4h750.93333334c56.55466667 0 102.4 45.84533333 102.4 102.4V759.46666667c0 56.55466667-45.84533333 102.4-102.4 102.4zM273.06666667 42.66666667000004c-56.55466667 0-102.4 45.84533333-102.4 102.4s45.84533333 102.4 102.4 102.4 102.4-45.84533333 102.4-102.4-45.84533333-102.4-102.4-102.4z m336.0704 0h-73.248c-12.82346667 0-23.57546667 9.89013333-24.4096 22.68586666-11.1232 170.77333333-147.7184 307.02933333-318.12906667 318.12906667-12.7936 0.832-22.68373333 11.58613333-22.68373333 24.40746667v73.248c0 13.94133333 11.66506667 25.12426667 25.5872 24.37333333 235.83146667-12.74453333 424.52693333-201.6768 437.25653333-437.25653333 0.75093333-13.92213333-10.432-25.5872-24.37333333-25.5872z m219.79093333 0h-73.24586667c-13.14346667 0-23.84 10.41493333-24.3776 23.54773333-11.9424 291.27466667-245.76853333 525.14346667-537.088 537.088C181.0816 603.84213333 170.66666667 614.53866667 170.66666667 627.6821333299999V700.928c0 13.76853333 11.38773333 24.8832 25.1456 24.38826667 358.03733333-12.85333333 644.71466667-301.20746667 657.504-657.504 0.49493333-13.75786667-10.61973333-25.1456-24.38826667-25.1456z"  horiz-adv-x="1024" />
      
      <glyph glyph-name="note" unicode="&#59145;" d="M835.47897387 96.22974399999998l-18.9046144-18.90461547c-21.00512853-21.00512853-48.3117952-31.5076928-77.71897494-31.5076928h-54.61333333c-50.4123072 0-105.02564053 39.909744-105.02564053 109.22666667v52.51282027c0 42.010256 18.90461547 67.21641067 29.40717866 81.92l226.85538454 231.05641066c6.30153813 6.30153813 12.60307733 21.00512853 12.60307733 29.40717974V724.28307733C848.0820512 778.89641067 801.87076907 825.1076928 747.25743573 825.1076928H209.5261536C154.91282027 825.1076928 108.70153813 774.69538453 108.70153813 724.28307733H75.09333333C37.2841024 724.28307733 7.87692267 692.77538453 7.87692267 654.9661536s29.40717973-67.21641067 67.21641066-67.2164096h33.6082048v-136.53333333H75.09333333C37.2841024 451.21641067 7.87692267 421.80923093 7.87692267 384s29.40717973-67.21641067 67.21641066-67.21641067h33.6082048v-136.53333333H75.09333333c-37.80923093 0-67.21641067-31.5076928-67.21641066-67.2164096 0-37.80923093 29.40717973-67.21641067 67.21641066-67.21641067h33.6082048c0-67.21641067 46.21128213-100.82461547 100.82461547-100.82461546h537.73128213c54.61333333 0 100.82461547 46.21128213 100.82461547 100.82461546V89.9282048c0 10.50256427-4.20102613 12.60307733-12.60307733 6.3015392z m-172.2420512 474.71589653c0-18.90461547-14.70358933-33.6082048-33.6082048-33.6082048h-336.0820512c-18.90461547 0-33.6082048 14.70358933-33.6082048 33.6082048v33.60820587c0 18.90461547 14.70358933 33.6082048 33.6082048 33.6082048h336.0820512c18.90461547 0 33.6082048-14.70358933 33.6082048-33.6082048v-33.60820587zM512 163.4461536c0-18.90461547-14.70358933-33.6082048-33.6082048-33.6082048h-184.84512853c-18.90461547 0-33.6082048 14.70358933-33.6082048 33.6082048v33.60820587c0 18.90461547 14.70358933 33.6082048 33.6082048 33.6082048h184.84512853c18.90461547 0 33.6082048-14.70358933 33.6082048-33.6082048v-33.60820587z m50.4123072 203.749744c0-18.90461547-14.70358933-33.6082048-33.6082048-33.6082048H293.54666667c-18.90461547 0-33.6082048 14.70358933-33.6082048 33.6082048v33.6082048c0 18.90461547 14.70358933 33.6082048 33.6082048 33.6082048h235.25743573c18.90461547 0 33.6082048-14.70358933 33.6082048-33.6082048v-33.6082048z m443.20820587 92.42256427l-21.00512854 21.00512746c-12.60307733 12.60307733-33.6082048 12.60307733-46.21128213 0L682.14153813 215.95897387000002c-2.10051307 0-2.10051307-4.20102613-2.100512-4.20102507v-56.7138464c0-4.20102613 0-8.4020512 4.20102507-8.4020512h54.61333333c2.10051307 0 4.20102613 2.10051307 6.30153814 2.10051307l258.36307733 260.46358933c16.8041024 14.70358933 16.8041024 35.70871787 2.10051307 50.41230827z"  horiz-adv-x="1024" />
      
      <glyph glyph-name="profile" unicode="&#58929;" d="M921.6 622.93333333l-66.83306667 0 0 100.28373334-137.96693333 2.11626666 0.7168-102.4-414.58346667 0 2.83306667 102.4-135.09973333-2.11626666 0-102.4-68.26666667 2.11626666c-37.6832 0-68.26666667-30.58346667-68.26666667-68.26666666l0-477.86666667c0-37.6832 30.58346667-68.26666667 68.26666667-68.26666667l819.2 0c37.6832 0 68.26666667 30.58346667 68.26666667 68.26666667l0 477.86666667c0 37.6832-30.58346667 68.26666667-68.26666667 68.26666666zM750.93333333 691.2l68.26666667 0 0-136.53333333-68.26666667 0 0 136.53333333zM307.2 458.68373333c41.23306667 0 74.68373333-43.9296 74.68373333-98.13333333s-33.45066667-98.13333333-74.68373333-98.13333333-74.68373333 43.9296-74.68373333 98.13333333 33.45066667 98.13333333 74.68373333 98.13333333zM204.8 691.2l68.26666667 0 0-136.53333333-68.26666667 0 0 136.53333333zM159.30026667 146.84159999999997c0 0 8.0896 64.9216 26.48746666 77.17546667s71.33866667 20.41173333 71.33866667 20.41173333 34.33813333-36.69333333 48.9472-36.69333333c14.57493333 0 48.91306667 36.69333333 48.91306667 36.69333333s52.97493333-8.12373333 71.3728-20.41173333c21.6064-14.40426667 26.99946667-77.17546667 26.99946666-77.17546667l-294.05866666 0zM853.33333333 179.20000000000005l-307.2 0 0 34.13333333 307.2 0 0-34.13333333zM853.33333333 247.46666667l-307.2 0 0 34.13333333 307.2 0 0-34.13333333zM853.33333333 315.73333333000005l-307.2 0 0 34.13333334 307.2 0 0-34.13333334zM853.33333333 384l-307.2 0 0 34.13333333 307.2 0 0-34.13333333z"  horiz-adv-x="1024" />
      
      <glyph glyph-name="about" unicode="&#59109;" d="M512 864C247.04 864 32 648.96 32 384s215.04-480 480-480 480 215.04 480 480S776.96 864 512 864z m58.56-725.76c0-25.92-21.12-47.04-47.04-47.04h-23.52c-25.92 0-47.04 21.12-47.04 47.04V419.04c0 25.92 21.12 47.04 47.04 47.04h23.52c25.92 0 47.04-21.12 47.04-47.04v-280.8zM512 536.1600000000001c-32.16 0-58.56 26.4-58.56 58.56 0 32.16 26.4 58.56 58.56 58.56s58.56-26.4 58.56-58.56c0-32.16-26.4-58.56-58.56-58.56z"  horiz-adv-x="1024" />
      
      <glyph glyph-name="set" unicode="&#59278;" d="M429.61903692 852.17342324l147.05954767-0.22093366a82.85044939 82.85044939 0 0 0 82.71236486-82.73998256l0.05523407-23.97139626a390.25323298 390.25323298 0 0 0 80.39255229-45.15349491l19.69079057 11.3228939a82.85044939 82.85044939 0 0 0 113.00801294-30.26803043l73.70928228-127.25829026a82.85044939 82.85044939 0 0 0-25.87695659-110.55011585l-4.50154066-2.7616825-19.77364101-11.40574433c3.39686843-31.37270394 2.98261618-63.24250927-1.4636917-94.91899862l13.97410955-8.09172766a82.85044939 82.85044939 0 0 0 32.64307706-108.89310687l-2.2921962-4.28060698-69.04204072-119.58081484a82.85044939 82.85044939 0 0 0-108.89310687-32.64307707l-4.30822337 2.31981259-19.08322104 11.04672615a386.46972998 386.46972998 0 0 0-77.18900113-43.08223368v-32.86401072a82.85044939 82.85044939 0 0 0-77.65848877-82.79521662l-5.27481107-0.1657009-147.05954766 0.22093497a82.85044939 82.85044939 0 0 0-82.71236616 82.71236486l-0.08285045 39.63013249a391.74454107 391.74454107 0 0 0-64.8166678 38.44260852l-35.23905737-20.27074372a82.85044939 82.85044939 0 0 0-113.00801296 30.2956481l-73.70928357 127.23067257a82.85044939 82.85044939 0 0 0 25.87695659 110.57773353l4.50154195 2.76168122 35.8466269 20.6297619c-2.76168122 26.23597606-2.89976573 52.77573627-0.24855133 79.26026368l-39.7958321 23.00480853A82.85044939 82.85044939 0 0 0 54.38935167 558.60666469l2.31981259 4.28060698 69.04204072 119.58081484a82.85044939 82.85044939 0 0 0 108.89310687 32.64307706l4.28060699-2.31981259 34.6867219-20.02219235a385.75169232 385.75169232 0 0 0 73.04647867 44.87732718v31.53840483a82.85044939 82.85044939 0 0 0 77.65848876 82.82283169l5.27481108 0.16570091z m164.78954383-320.68647188a165.4799638 165.4799638 0 0 1-226.20934449-60.61891257 165.92183372 165.92183372 0 0 1 60.67414662-226.45789455 165.4799638 165.4799638 0 0 1 226.23695958 60.59129488 165.92183372 165.92183372 0 0 1-60.70176171 226.45789455z m-154.46085532-102.01652087a82.62951442 82.62951442 0 0 0 108.72740726 32.58784429l4.28060569-2.2921962 4.14252247-2.56836394a83.07138435 83.07138435 0 0 0 26.23597607-110.7986672 82.62951442 82.62951442 0 0 0-113.00801295-30.29564809 83.07138435 83.07138435 0 0 0-30.37849854 113.36703114z"  horiz-adv-x="1024" />
      
      <glyph glyph-name="edit" unicode="&#59018;" d="M616.37214777 760.22518557L368.79170333 510.2174811c-7.28177778-7.28177778-12.13629667-16.99081443-14.56355556-29.12711111l-58.25422222-240.29866666c-9.70903666-43.69066667 26.69985223-84.95407445 70.3905189-72.81777778l228.16236998 60.68148224c9.70903666 2.42725888 19.41807445 7.28177778 26.69985224 16.99081443l266.9985189 269.42577778V-4.361481099999992c0-46.11792555-36.40888889-82.52681443-80.09955556-84.95407445H123.6385189c-46.11792555 0-84.95407445 38.83614777-84.95407445 84.95407445V675.27111111c0 46.11792555 38.83614777 84.95407445 84.95407445 84.95407446h492.73362887zM769.2894811 799.06133333L424.61866667 456.81777778c-4.8545189-4.8545189-7.28177778-9.70903666-9.70903666-16.99081444l-36.40888889-143.20829667c-7.28177778-26.69985223 16.99081443-50.97244445 43.69066667-43.69066667l145.63555555 33.98163001c7.28177778 2.42725888 12.13629667 4.8545189 16.99081444 9.70903666l342.24355555 344.67081443c43.69066667 43.69066667 43.69066667 116.50844445 0 160.19911111s-114.08118557 43.69066667-157.77185223-2.42725888z"  horiz-adv-x="1024" />
      
      <glyph glyph-name="copy" unicode="&#58946;" d="M853.33333333 861.86666667H281.59241493a8.55608853 8.55608853 0 0 1-8.52574826-8.52574827V793.6c0-4.70281493 3.8532736-8.52574827 8.52574826-8.52574827h529.0818368V51.162073599999985c0-4.6724736 3.82293333-8.52574827 8.52574827-8.5257472h59.7409184a8.55608853 8.55608853 0 0 1 8.52574827 8.5257472V827.73333333c0 18.87194027-15.26139307 34.13333333-34.13333334 34.13333334z m-136.53333333-136.53333334h-546.13333333c-18.87194027 0-34.13333333-15.26139307-34.13333334-34.13333333v-566.0672c0-9.10222187 3.64088853-17.71899307 10.0124448-24.12088853l184.86613334-184.83579307c2.3362368-2.36657813 5.00622187-4.2780448 7.888592-5.88610347v-2.03282986h4.49042986c3.73191147-1.36533333 7.67620693-2.12385173 11.74186667-2.12385174H716.8c18.87194027 0 34.13333333 15.26139307 34.13333333 34.13333334V691.2c0 18.87194027-15.26139307 34.13333333-34.13333333 34.13333333zM373.34281493-25.600000000000023h-0.21238506l-159.8046816 159.77434027v0.21238613h160.01706666V-25.600000000000023z"  horiz-adv-x="1024" />
      
      <glyph glyph-name="link" unicode="&#59056;" d="M306.05312 534.3232a61.44 61.44 0 0 0 4.21888-82.20672l-4.21888-4.66944-106.9056-106.9056a190.464 190.464 0 0 1 262.30784-276.15232l7.08608 6.7584 106.9056 106.9056a61.44 61.44 0 0 0 91.09504-82.24768l-4.21888-4.66944-106.9056-106.9056A313.344 313.344 0 0 0 104.448 419.38944l7.7824 8.11008 106.9056 106.9056a61.44 61.44 0 0 0 86.91712 0z m385.024 27.81184a61.44 61.44 0 0 0 4.21888-82.20672l-4.21888-4.66944-270.336-270.336a61.44 61.44 0 0 0-91.09504 82.20672l4.21888 4.66944 270.336 270.336a61.44 61.44 0 0 0 86.8352 0z m220.65152 221.5936a313.344 313.344 0 0 0 7.7824-435.07712l-7.7824-8.11008-106.9056-106.9056a61.44 61.44 0 0 0-91.09504 82.24768l4.21888 4.66944 106.9056 106.9056a190.464 190.464 0 0 1-262.30784 276.15232l-7.08608-6.7584-106.9056-106.9056a61.44 61.44 0 0 0-91.09504 82.24768l4.21888 4.66944 106.9056 106.9056a313.344 313.344 0 0 0 443.1872 0z"  horiz-adv-x="1024" />
      
      <glyph glyph-name="qrcode" unicode="&#59164;" d="M387.8486016 839.67747161H139.0487021A82.85044939 82.85044939 0 0 1 56.32252839 756.9512979v-248.7998995A82.85044939 82.85044939 0 0 1 139.0487021 425.42522469h248.7998995A82.85044939 82.85044939 0 0 1 470.57477531 508.1513984V756.9512979A82.85044939 82.85044939 0 0 1 387.8486016 839.67747161M387.8486016 342.57477530999995H139.0487021A82.85044939 82.85044939 0 0 1 56.32252839 259.84860160000005v-248.7998995A82.85044939 82.85044939 0 0 1 139.0487021-71.67747161h248.7998995A82.85044939 82.85044939 0 0 1 470.57477531 11.048702100000014v248.7998995A82.85044939 82.85044939 0 0 1 387.8486016 342.57477530999995M884.9512979 839.67747161h-248.7998995A82.85044939 82.85044939 0 0 1 553.42522469 756.9512979v-248.7998995A82.85044939 82.85044939 0 0 1 636.1513984 425.42522469h248.7998995A82.85044939 82.85044939 0 0 1 967.67747161 508.1513984V756.9512979A82.85044939 82.85044939 0 0 1 884.9512979 839.67747161M760.55134815 259.72432591999996a41.42522469 41.42522469 0 0 1-41.42522468-41.42522468v-248.55134815a41.42522469 41.42522469 0 1 1 82.85044936 0v248.55134815a41.42522469 41.42522469 0 0 1-41.42522468 41.42522468M594.85044939 259.72432591999996a41.42522469 41.42522469 0 0 1-41.4252247-41.42522468v-248.55134815a41.42522469 41.42522469 0 1 1 82.85044939 0v248.55134815a41.42522469 41.42522469 0 0 1-41.42522469 41.42522468M926.25224691 342.57477530999995a41.42522469 41.42522469 0 0 1-41.42522469-41.4252247v-331.40179752a41.42522469 41.42522469 0 1 1 82.85044939 0v331.40179752a41.42522469 41.42522469 0 0 1-41.4252247 41.4252247"  horiz-adv-x="1024" />
      
      <glyph glyph-name="domain" unicode="&#58998;" d="M858.93625719 73.31081482000002H165.06374281c-12.94538311 0-20.71261275-15.53445925-10.35630578-25.89076504 90.61767941-95.79583169 217.48242963-155.34459259 357.29256297-155.34459259s269.2639609 59.5487609 357.29256297 155.34459259c10.35630577 10.35630577 2.58907614 25.89076502-10.35630578 25.89076504zM123.63851852 642.90765392h776.72296296c12.94538311 0 20.71261275 15.53445925 12.94538313 25.89076624-88.02860206 124.27567408-235.60596502 207.12612386-401.30686461 207.12612265S198.72173868 793.07409423 110.69313539 668.79842016c-7.76722963-10.35630577 0-25.89076502 12.94538313-25.89076624z m776.72296296-77.6722963H123.63851852c-56.95968355 0-103.56306132-46.60337778-103.56306133-103.56306132v-207.12612386c0-56.95968355 46.60337778-103.56306132 103.56306133-103.56306133h776.72296296c56.95968355 0 103.56306132 46.60337778 103.56306133 103.56306133v207.12612386c0 56.95968355-46.60337778 103.56306132-103.56306133 103.56306132z m-530.76069095-139.81013333L330.76464238 254.54617243999996c-5.17815349-15.53445925-15.53445925-20.71261275-31.06891852-20.71261154s-25.89076502 7.76722963-31.06891852 20.71261154l-36.24707201 119.09752179-36.24707201-119.09752179c-5.17815349-12.94538311-15.53445925-20.71261275-31.06891851-20.71261154s-25.89076502 7.76722963-31.06891852 20.71261154l-38.83614815 170.87905185V435.78153127c2.58907614 12.94538311 7.76722963 20.71261275 20.71261275 20.71261154s23.30168889-7.76722963 25.89076503-23.30168889l25.89076624-132.0429037 38.83614815 134.63198105c5.17815349 10.35630577 12.94538311 18.12353539 23.30168888 18.1235354 12.94538311 0 20.71261275-5.17815349 23.30168889-18.1235354l38.83614815-134.63198105 25.89076502 132.0429037c2.58907614 15.53445925 10.35630577 23.30168889 23.3016889 23.30168889s20.71261275-7.76722963 20.71261275-20.71261154c7.76722963-2.58907614 7.76722963-7.76722963 7.76722963-10.35630698z m279.62026666 0L610.38490905 254.54617243999996c-5.17815349-15.53445925-15.53445925-20.71261275-31.06891852-20.71261154s-25.89076502 7.76722963-31.06891852 20.71261154L512 373.64369423000005 475.75292799 254.54617243999996c-5.17815349-12.94538311-15.53445925-20.71261275-31.06891852-20.71261154s-25.89076502 7.76722963-31.06891852 20.71261154l-38.83614814 170.87905185V435.78153127c2.58907614 12.94538311 7.76722963 20.71261275 20.71261274 20.71261154s23.30168889-7.76722963 25.89076504-23.30168889l25.89076624-132.0429037L486.10923498 435.78153127c5.17815349 10.35630577 12.94538311 18.12353539 23.30168888 18.1235354 12.94538311 0 20.71261275-5.17815349 23.30168889-18.1235354l38.83614815-134.63198105 25.89076502 132.0429037c2.58907614 15.53445925 10.35630577 23.30168889 23.3016889 23.30168889s20.71261275-7.76722963 20.71261274-20.71261154c10.35630577-2.58907614 10.35630577-7.76722963 7.76722963-10.35630698z m282.20934281 0L892.59425185 254.54617243999996c-5.17815349-15.53445925-15.53445925-20.71261275-31.06891852-20.71261154s-25.89076502 7.76722963-31.06891851 20.71261154l-36.24707201 119.09752179-36.2470708-119.09752179c-5.17815349-12.94538311-15.53445925-20.71261275-31.06891852-20.71261154s-25.89076502 7.76722963-31.06891851 20.71261154l-38.83614815 170.87905185V435.78153127c2.58907614 12.94538311 7.76722963 20.71261275 20.71261153 20.71261154s23.30168889-7.76722963 25.89076625-23.30168889l25.89076502-132.0429037 38.83614815 134.63198105c5.17815349 10.35630577 12.94538311 18.12353539 23.30168889 18.1235354 12.94538311 0 20.71261275-5.17815349 23.30168888-18.1235354l38.83614815-134.63198105 25.89076503 132.0429037c2.58907614 15.53445925 10.35630577 23.30168889 23.30168889 23.30168889s20.71261275-7.76722963 20.71261275-20.71261154c10.35630577-2.58907614 7.76722963-7.76722963 7.76722963-10.35630698z"  horiz-adv-x="1024" />
      
      <glyph glyph-name="ip" unicode="&#59003;" d="M566.37060741 528.98828683h-31.06891852V461.6722963h31.06891852c20.71261275 2.58907614 31.06891852 12.94538311 31.06891851 33.65799465-2.58907614 20.71261275-12.94538311 31.06891852-31.06891851 33.65799588z m214.89335349 139.81013333H242.7360391c-7.76722963 0-15.53445925-7.76722963-15.53445926-15.53445926v-409.07409423c0-7.76722963 7.76722963-15.53445925 15.53445926-15.53445926h538.5279218c7.76722963 0 15.53445925 7.76722963 15.53445926 15.53445926V653.2639609c0 7.76722963-7.76722963 15.53445925-15.53445926 15.53445926zM460.21846873 371.05461689000003c0-15.53445925-7.76722963-20.71261275-23.30168889-20.71261155s-23.30168889 7.76722963-23.30168889 20.71261155v176.05720533c0 15.53445925 7.76722963 23.30168889 23.30168889 23.30168889 15.53445925 0 23.30168889-7.76722963 23.30168889-23.30168889v-176.05720533z m108.74121482 51.78153126h-33.65799466v-51.78153126c0-15.53445925-7.76722963-20.71261275-23.30168889-20.71261155s-23.30168889 7.76722963-23.30168889 20.71261155v176.05720533c0 15.53445925 7.76722963 23.30168889 23.30168889 23.30168889h56.95968355c49.19245392-2.58907614 75.08322016-28.47984238 77.67229629-75.08322016-5.17815349-46.60337778-31.06891852-69.90506667-77.67229629-72.4941428zM900.36148148 875.92454281H123.63851852C66.67883498 875.92454281 20.07545719 829.32116502 20.07545719 772.36148148v-647.2691354c0-56.95968355 46.60337778-103.56306132 103.56306133-103.56306253h253.72950164l95.79583169-108.74121482c20.71261275-23.30168889 56.95968355-23.30168889 77.6722963 0l95.79583169 108.74121482H900.36148148c56.95968355 0 103.56306132 46.60337778 103.56306133 103.56306253V772.36148148c0 56.95968355-46.60337778 103.56306132-103.56306133 103.56306133z m-25.89076503-673.15990043c0-28.47984238-23.30168889-51.78153127-51.78153127-51.78153127H201.31081482c-28.47984238 0-51.78153127 23.30168889-51.78153127 51.78153127V694.68918518c0 28.47984238 23.30168889 51.78153127 51.78153127 51.78153127h621.37837036c28.47984238 0 51.78153127-23.30168889 51.78153127-51.78153127v-491.9245428z"  horiz-adv-x="1024" />
      
      <glyph glyph-name="eye" unicode="&#59497;" d="M508 384m-112 0a112 112 0 1 1 224 0 112 112 0 1 1-224 0ZM942.2 409.8C847.4 609.5 704.1 710 512 710c-192.2 0-335.4-100.5-430.2-300.3-7.7-16.2-7.7-35.2 0-51.5C176.6 158.5 319.9 58 512 58c192.2 0 335.4 100.5 430.2 300.3 7.7 16.2 7.7 35 0 51.5zM508 208c-97.2 0-176 78.8-176 176s78.8 176 176 176 176-78.8 176-176-78.8-176-176-176z"  horiz-adv-x="1024" />
      
      <glyph glyph-name="empty" unicode="&#58913;" d="M116.05670018-48.99298514999998l-1.13627054 0.02505558c-6.56832015 0.21297242-40.71030549 2.40533563-63.45576051 23.72763374-23.32173335 21.87226807-26.10540822 53.32077862-26.42611965 59.40803165a30.74945987 30.74945987 0 0 0-0.04510004 1.71881273v171.27994115c-0.3395031 7.05565118-0.79551465 30.8910239 7.19095131 57.36224359 7.65197396 25.38130198 17.10544409 42.0445151 19.81269944 46.54073883l85.9894959 152.12745619c0.42970319 0.7629424 0.88446195 1.50082922 1.37179298 2.21867155 2.68094701 3.97757324 17.09416909 24.45173999 36.85675737 36.74776561 20.79487817 12.94997623 45.9644605 13.95094663 53.18673127 13.95094665h543.16988467c0.69905067 0 1.39058466-0.02004447 2.10466868-0.06514453 5.39947738-0.34576699 33.43667077-2.71226646 55.13480258-15.12480053 20.71845865-11.86632243 37.39545232-32.60231998 40.52614699-36.63125715a33.82503226 33.82503226 0 0 0 1.78896836-2.55942745l102.12779464-161.83022933c0.43596708-0.71283122 0.87819806-1.45698194 1.27658176-2.21992433 1.95684076-3.75833692 12.05173371-23.61738919 17.1643247-42.93022985 5.04869926-19.10738489 6.26640043-40.22422725 6.4518117-44.25817553l0.02630836-1.37805687v-171.30499669c0.11525566-9.05759197-1.55219315-40.14154383-27.33688995-63.23902976-24.41916773-21.8597403-57.29208797-23.55224468-66.78564703-23.55224469H116.05670018z m-8.74940834 325.34920471c-1.87916846-3.34116151-7.72338237-14.3944304-12.63678149-30.67930425-5.1890105-17.21568864-4.57264325-33.30888732-4.48995984-35.0915918a49.48476941 49.48476941 0 0 0 0.08393618-2.31638832v-171.25363276l0.06389172-0.47355046c0.40464761-3.07933071 2.28381606-10.5396295 5.52350251-13.90584659l0.43596707-0.46352823 0.51363938-0.37708646c4.53505987-3.3424143 15.77248726-5.2604189 19.69744379-5.49719415l788.60306595-0.01252776c6.54326458 0.07641952 17.97988382 2.2575077 23.16263042 6.90155934 4.63653498 4.15672063 5.67508875 11.28879132 5.67508875 12.43007298l-0.06263895 1.98189632v170.51574595c-0.35328368 6.65225635-1.64239324 19.9104162-4.31081244 29.95394524-3.02170288 11.47545539-9.78169822 25.22219906-11.10964393 27.85178211l-0.36581147 0.64142284-100.22231779 158.82857092-0.31319475 0.37833923c-3.79842583 4.57389603-12.90612897 14.34933036-20.17976368 18.51857879-6.29897267 3.60424511-19.12742935 5.91311675-25.73458566 6.52948401l-0.6852701 0.03257224h-541.43854413c-5.06749095-0.04510004-14.48212493-1.38557354-18.83177352-4.10535669-6.12608917-3.81721753-13.37967942-12.54031751-16.36254615-16.61310194l-0.25681969-0.35328368-85.45080093-151.17033306-0.92329811-1.55219315 0.01252778 0.03883616c-0.02505557-0.07641952-0.39713093-0.73788683-0.39713092-0.73788683z m401.65847749 287.62051319a32.67372837 32.67372837 0 0 0-32.64115614 32.63489223V784.35809293a32.67372837 32.67372837 0 0 0 32.62862836 32.63489222 32.67999229 32.67999229 0 0 0 32.64742001-32.63489222v-187.74396238a32.66746449 32.66746449 0 0 0-32.63489223-32.63489225z m218.81538646 1.23774562a32.67999229 32.67999229 0 0 0-32.63489224 32.64240892 32.71256453 32.71256453 0 0 0 7.29117361 20.55810293l74.60549339 92.01160441a32.53341714 32.53341714 0 0 0 25.38130196 12.08430598c7.54172941 0 14.64248063-2.5205913 20.51801403-7.28616251a32.36679754 32.36679754 0 0 0 11.91142247-21.96246816 32.38433644 32.38433644 0 0 0-7.10075122-23.94436451l-74.60298781-92.0128572a32.4043809 32.4043809 0 0 0-25.31866303-12.08430596h-0.05011116z m-433.96138331 2.49553572a32.4106448 32.4106448 0 0 0-25.49655765 12.28976171l-73.34018661 92.00534052a32.67372837 32.67372837 0 0 0 5.17648271 45.86799653 32.28912524 32.28912524 0 0 0 20.32007494 7.11954289c10.00594566 0 19.31284064-4.48244316 25.54165769-12.29602561l73.34645051-92.00408773a32.66746449 32.66746449 0 0 0-5.16270214-45.86298542 32.75766458 32.75766458 0 0 0-20.33260274-7.11954289h-0.05261671zM510.21103163 85.28237067999999c-72.71129156 0-135.88642959 48.74813538-153.61575761 118.52917693l-1.4294208 5.62497758-289.84043753 0.17288349a32.70630064 32.70630064 0 0 0-32.63489224 32.6612006 32.67372837 32.67372837 0 0 0 32.63489224 32.62236445l319.15922382-0.20420298a32.70003674 32.70003674 0 0 0 32.61735332-32.64742002c0-51.30129892 40.89696956-91.48042613 93.1090388-91.48042613 52.02540516 0 92.78081071 40.17787443 92.7808107 91.47917335a32.71882842 32.71882842 0 0 0 32.63489224 32.6486728l316.20391822 0.19919186c18.00368661 0 32.63489225-14.61867782 32.64742002-32.60983666s-14.61742506-32.6486728-32.60983665-32.67498115l-286.90768195-0.17288351-1.43067359-5.62497759c-17.70928355-69.77978877-80.74912146-118.52291303-153.31884899-118.52291302z"  horiz-adv-x="1024" />
      
      <glyph glyph-name="tag" unicode="&#59217;" d="M954.18595555 534.40512l-299.31747555 291.30752c-41.46972445 40.19541333-120.33137778 40.26823111-161.91032889-0.10922667l-372.09884444-363.97966222c-64.18887111-62.2592-80.46364445-87.27210667-80.46364445-171.77713778l0-163.76718222c0-151.06048 30.69269333-218.45333333 212.66432-218.45333333l150.04103111 0c92.29653333 0 146.14528 53.08416 220.67427556 126.59370667l329.97376 338.71189333c21.15356445 20.46179555 33.27772445 50.02581333 33.27772444 81.08259555C987.02677333 484.85262222 975.04824889 514.16177778 954.18595555 534.40512zM296.96910222 71.39328c-60.22030222 0-109.22666667 49.00636445-109.22666667 109.22666667s49.00636445 109.22666667 109.22666667 109.22666666 109.22666667-49.00636445 109.22666667-109.22666666S357.18940445 71.39328 296.96910222 71.39328z"  horiz-adv-x="1024" />
      
      <glyph glyph-name="clock" unicode="&#58978;" d="M908.03041387 771.691696l-45.88450454 0 0 13.63207573c0 40.8645728-33.2795552 74.27511147-73.94546986 74.27511147l-1.09261867 0c-40.6713728 0-73.94546987-33.4094464-73.94546987-74.27511147l0-13.63207573L304.216448 771.691696l0 13.63207573c0 40.8645728-33.27518827 74.27511147-73.94546987 74.27511147l-1.12536426 0c-40.6691904 0-73.94437867-33.4094464-73.94437867-74.27511147l0-13.63207573-45.78626667 0c-40.6691904 0-73.94546987-33.4411008-73.94546986-74.2500064l0-710.0817216c0-40.8634816 33.27518827-74.27511147 73.94546986-74.27511147l798.61544534 0c40.6691904 0 73.94437867 33.41162987 73.94437866 74.27511147l0 710.0817216C981.97479253 738.2505952 948.69960427 771.691696 908.03041387 771.691696L908.03041387 771.691696zM742.73944747 785.3237728c0 24.55934827 19.87451627 44.5626656 44.36728213 44.5626656l1.09261867 0c24.46002027 0 44.36619093-20.00331627 44.36619093-44.5626656L832.5655392 653.20975787c0-24.55934827-19.90617067-44.5637568-44.36619093-44.5637568l-1.09261867 0c-24.49276587 0-44.36728213 20.00440853-44.36728213 44.5637568L742.73944747 785.3237728 742.73944747 785.3237728zM184.779424 785.3237728c0 24.55934827 19.87451627 44.5626656 44.37274027 44.5626656l1.11881493 0c24.43054827 0 44.36728213-20.00331627 44.36728213-44.5626656L274.63826027 653.20975787c0-24.55934827-19.93782507-44.5637568-44.36728214-44.5637568l-1.11881493 0c-24.49822293 0-44.37274027 20.00440853-44.37274027 44.5637568L184.779424 785.3237728 184.779424 785.3237728zM908.03041387-27.528454399999987l-798.61544534 0c-8.0205376 0-14.7890944 6.8995392-14.7890944 14.88842347L94.62587413 509.4458784l828.19581654 0 0-522.0859104C922.82059947-20.62782292999998 916.05095147-27.528454399999987 908.03041387-27.528454399999987L908.03041387-27.528454399999987zM203.32227733 403.110448l136.44628374 0 0-67.14744213L203.32227733 335.96300586999996 203.32227733 403.110448 203.32227733 403.110448zM441.5610592 403.110448l135.3667648 0 0-67.14744213L441.5610592 335.96300586999996 441.5610592 403.110448 441.5610592 403.110448zM678.7192288 403.110448l133.1979008 0 0-67.14744213L678.7192288 335.96300586999996 678.7192288 403.110448 678.7192288 403.110448zM203.32227733 266.65652266999996l136.44628374 0 0-66.05591574L203.32227733 200.60060693000003 203.32227733 266.65652266999996 203.32227733 266.65652266999996zM441.5610592 266.65652266999996l135.3667648 0 0-66.05591574L441.5610592 200.60060693000003 441.5610592 266.65652266999996 441.5610592 266.65652266999996zM678.7192288 266.65652266999996l133.1979008 0 0-66.05591574L678.7192288 200.60060693000003 678.7192288 266.65652266999996 678.7192288 266.65652266999996zM203.32227733 133.45643946999996l136.44628374 0 0-69.30429867L203.32227733 64.15213973000004 203.32227733 133.45643946999996 203.32227733 133.45643946999996zM441.5610592 133.45643946999996l135.3667648 0 0-69.30429867L441.5610592 64.15213973000004 441.5610592 133.45643946999996 441.5610592 133.45643946999996zM678.7192288 133.45643946999996l133.1979008 0 0-69.30429867L678.7192288 64.15213973000004 678.7192288 133.45643946999996 678.7192288 133.45643946999996zM678.7192288 133.45643946999996"  horiz-adv-x="1024" />
      
      <glyph glyph-name="list" unicode="&#58892;" d="M98.31548928 844.80935253l321.05319651 0c25.33040355 0 45.86507491-20.53467136 45.86507492-45.86507491l0-321.05319652c0-25.33040355-20.53467136-45.86507491-45.86507492-45.86507491L98.31548928 432.02600619c-25.33040355 0-45.86507491 20.53467136-45.86507491 45.86507491L52.45041437 798.9454427000001C52.45041437 824.27584512 72.98508573 844.80935253 98.31548928 844.80935253zM97.34330254 336.8076288L418.39649906 336.8076288c25.33040355 0 45.86507491-20.53467136 45.86507491-45.86507491l0-321.05319652c0-25.33040355-20.53467136-45.86507491-45.86507491-45.86507492L97.34330254-75.97571755000001c-25.33040355 0-45.86507491 20.53467136-45.86507491 45.86507492L51.47822763 290.94255389C51.47939271 316.27295630000003 72.01290013 336.8076288 97.34330254 336.8076288zM605.2146267 844.80935253l321.05319652 0c25.33040355 0 45.86507491-20.53467136 45.86507491-45.86507491l0-321.05319652c0-25.33040355-20.53467136-45.86507491-45.86507491-45.86507491L605.2146267 432.02600619c-25.33040355 0-45.86507491 20.53467136-45.86507491 45.86507491L559.34955065 798.9454427000001C559.34955065 824.27584512 579.88422315 844.80935253 605.2146267 844.80935253zM760.28592014-80.78425657000003L639.34709987-80.78425657000003c-46.56365227 0-84.44632064 37.98745429-84.44632064 84.67917938L554.90077923 256.57838477999996c0 46.69172395 37.98745429 84.67801543 84.67917938 84.67801543l252.68346198 0c46.69172395 0 84.67801543-37.80466005 84.67801543-84.2716763L976.94143602 127.01213923c0-11.65459342-9.44825458-21.102848-21.102848-21.102848s-21.102848 9.44825458-21.102848 21.102848L934.73574002 256.98472390999996c0 23.19624989-19.05368861 42.06714425-42.47348338 42.06714425L639.57995861 299.05186816c-23.42095872 0-42.47464733-19.05368861-42.47464732-42.47348338l0-252.68346197c0-23.42095872 18.94890155-42.47464733 42.24178858-42.47464732l120.93882027 0c11.65459342 0 21.102848-9.44825458 21.102848-21.102848C781.38760306-71.33716593999998 771.94051357-80.78425657000003 760.28592014-80.78425657000003z"  horiz-adv-x="1024" />
      
      <glyph glyph-name="msg" unicode="&#59020;" d="M859.358609 58.30121699999995C977.786435 143.64939100000004 1053.495652 273.80869600000005 1053.495652 419.59513 1053.495652 676.7304349999999 818.198261 885.158957 527.961043 885.158957 237.723826 885.158957 2.448696 676.7304349999999 2.448696 419.59513 2.448696 162.48208699999998 237.723826-45.96869600000002 527.961043-45.96869600000002 568.876522-45.96869600000002 608.701217-41.80591300000003 646.92313-33.99234799999999 724.680348-63.577043 840.592696-102.19965200000001 936.047304-111.21530399999995 854.817391-28.872347999999988 854.171826 32.05565200000001 859.358609 58.30121699999995L859.358609 58.30121699999995ZM263.702261 322.470957C219.202783 322.470957 183.140174 358.555826 183.140174 403.033043 183.140174 447.532522 219.202783 483.59513 263.702261 483.59513 308.179478 483.59513 344.242087 447.532522 344.242087 403.033043 344.242087 358.555826 308.179478 322.470957 263.702261 322.470957L263.702261 322.470957ZM526.447304 322.470957C481.947826 322.470957 445.885217 358.555826 445.885217 403.033043 445.885217 447.532522 481.947826 483.59513 526.447304 483.59513 570.946783 483.59513 607.009391 447.532522 607.009391 403.033043 607.031652 358.555826 570.946783 322.470957 526.447304 322.470957L526.447304 322.470957ZM789.214609 322.470957C744.737391 322.470957 708.674783 358.555826 708.674783 403.033043 708.674783 447.532522 744.737391 483.59513 789.214609 483.59513 833.714087 483.59513 869.776696 447.532522 869.776696 403.033043 869.776696 358.555826 833.714087 322.470957 789.214609 322.470957L789.214609 322.470957Z"  horiz-adv-x="1069" />
      
      <glyph glyph-name="user" unicode="&#58885;" d="M73.28-127.61599999999999S-36.416 251.84000000000003 512 251.84000000000003c548.352 0 438.72-379.456 438.72-379.456H73.28zM515.776 358.01599999999996c-219.328 0-219.328 322.56-219.328 322.56s0 215.04 219.328 215.04 219.328-215.04 219.328-215.04 0.064-322.56-219.328-322.56z"  horiz-adv-x="1024" />
      
      <glyph glyph-name="home" unicode="&#59495;" d="M1006.36444445 391.96444445L537.71377778 860.27377778c-14.22222222 14.22222222-37.20533333 14.22222222-51.42755556 0L17.63555555 391.96444445c-13.65333333-13.65333333-21.39022222-32.19911111-21.39022222-51.54133334 0-40.16355555 32.65422222-72.81777778 72.81777778-72.81777778h49.37955556V-66.55999999999995c0-20.13866667 16.27022222-36.40888889 36.40888888-36.40888889H439.18222222V151.89333333000002h127.43111111v-254.86222222h302.53511112c20.13866667 0 36.40888889 16.27022222 36.40888888 36.40888889V267.60533333h49.37955556c19.34222222 0 37.888 7.62311111 51.54133333 21.39022222 28.33066667 28.44444445 28.33066667 74.52444445-0.11377777 102.9688889z"  horiz-adv-x="1024" />
      
      <glyph glyph-name="tool" unicode="&#58973;" d="M969.33448059 730.05712161c-0.36822364 0.36822364-79.09456278-77.40073065-235.73714488-233.82237909l-109.8781081 109.91492866 234.19060403 234.19060402a314.02161408 314.02161408 0 0 1-384.24197333-47.50092388 316.41507165 316.41507165 0 0 1-82.07717766-305.25787867l2.31981259-8.69009172-366.97225799-366.86178987a20.76784641 20.76784641 0 0 1 0-29.23700317l183.00743723-183.04425907a20.76784641 20.76784641 0 0 1 29.27382631 0l366.75132172 366.75132303 8.69009175-2.35663572a316.19413669 316.19413669 0 0 1 305.47881233 81.96671212A315.97320302 315.97320302 0 0 1 969.33448059 730.05712161z"  horiz-adv-x="1024" />
      
    </font>
</defs>
</svg>
